<?xml version="1.0" encoding="utf-8"?>
<!-- Generator: Adobe Illustrator 16.0.0, SVG Export Plug-In . SVG Version: 6.00 Build 0)  -->
<!DOCTYPE svg PUBLIC "-//W3C//DTD SVG 1.1//EN" "http://www.w3.org/Graphics/SVG/1.1/DTD/svg11.dtd">
<svg version="1.1" id="Layer_1" xmlns="http://www.w3.org/2000/svg" xmlns:xlink="http://www.w3.org/1999/xlink" x="0px" y="0px"
	 width="17.417px" height="30.209px" viewBox="229.375 240.625 17.417 30.209"
	 enable-background="new 229.375 240.625 17.417 30.209" xml:space="preserve">
<path d="M230.696,255.582c4.507-4.508,9.015-9.016,13.521-13.524c0.071-0.07,0.131-0.151,0.196-0.227c0.021,0,0.041,0,0.062,0
	c0.43,0.43,0.86,0.86,1.29,1.29c0,0.021,0,0.041,0,0.062c-0.07,0.054-0.146,0.102-0.209,0.165c-4.096,4.095-8.19,8.19-12.285,12.288
	c-0.063,0.063-0.117,0.133-0.181,0.205c0.063,0.067,0.109,0.121,0.159,0.17c4.117,4.118,8.234,8.235,12.352,12.352
	c0.048,0.048,0.109,0.083,0.164,0.124c0,0.021,0,0.041,0,0.063c-0.43,0.43-0.86,0.859-1.29,1.289c-0.021,0-0.041,0-0.062,0
	c-0.057-0.069-0.108-0.145-0.172-0.207c-4.514-4.515-9.029-9.029-13.543-13.544c-0.078-0.078-0.152-0.16-0.241-0.252
	C230.543,255.742,230.618,255.66,230.696,255.582z"/>
</svg>
