<svg version="1.1" id="Layer_1" xmlns="http://www.w3.org/2000/svg" xmlns:xlink="http://www.w3.org/1999/xlink" x="0px" y="0px"
	 width="51.5px" height="20.75px" viewBox="0 0 51.5 20.75" enable-background="new 0 0 51.5 20.75" xml:space="preserve">
<g>
	<path d="M0.735,0.696h10.446v2.101H3.239v6.446h7.338v2.072H3.239v8.777H0.735V0.696z"/>
</g>
<g>
	<path d="M50.963,19.459c-0.921,0.46-2.763,0.92-5.123,0.92c-5.468,0-9.582-3.453-9.582-9.813c0-6.072,4.114-10.187,10.129-10.187
		c2.417,0,3.942,0.518,4.604,0.863l-0.604,2.043c-0.949-0.46-2.302-0.806-3.913-0.806c-4.547,0-7.568,2.907-7.568,8
		c0,4.749,2.733,7.798,7.453,7.798c1.524,0,3.079-0.316,4.086-0.806L50.963,19.459z"/>
</g>
<g>
	<path d="M22.035,17.046L26.848,4.54h1.173l-4.829,12.506H22.035z"/>
</g>
</svg>
