<svg id="logo" xmlns="http://www.w3.org/2000/svg" xmlns:xlink="http://www.w3.org/1999/xlink" version="1.1" x="0px" y="0px" viewBox="0 0 1260.5 126.5" enable-background="new 0 0 1260.5 126.5" xml:space="preserve"><g><g><path d="M2.601 2.911h64.961v13.064H18.17v40.086h45.633v12.885H18.17v54.581H2.601V2.911z"/><path d="M127.692 2.911h15.569v107.552H194.8v13.063h-67.108V2.911z"/><path d="M269.603 85.588l-12.527 37.938H240.97L281.95 2.911h18.79l41.16 120.616h-16.643l-12.885-37.938H269.603z M309.151 73.419L297.34 38.702c-2.684-7.874-4.474-15.032-6.263-22.011h-0.358c-1.789 7.158-3.758 14.495-6.084 21.8 l-11.812 34.896H309.151z"/><path d="M395.41 104.557c6.979 4.3 17.2 7.9 27.9 7.874c15.927 0 25.232-8.411 25.232-20.58 c0-11.274-6.442-17.717-22.727-23.98c-19.685-6.979-31.854-17.18-31.854-34.18c0-18.791 15.569-32.749 39.012-32.749 c12.348 0 21.3 2.9 26.7 5.905l-4.295 12.706c-3.938-2.147-11.99-5.727-22.906-5.727c-16.464 0-22.728 9.842-22.728 18.1 c0 11.3 7.3 16.8 24 23.264c20.401 7.9 30.8 17.7 30.8 35.433c0 18.611-13.78 34.717-42.233 34.7 c-11.632 0-24.338-3.4-30.78-7.695L395.41 104.557z"/><path d="M539.291 2.911v50.465h58.339V2.911h15.748v120.616H597.63v-56.55h-58.339v56.55h-15.569V2.911H539.291z"/></g></g><g><path d="M861.947 119.589c-5.727 2.863-17.18 5.727-31.854 5.727c-34.001 0-59.592-21.475-59.592-61.024 c0-37.759 25.591-63.35 62.992-63.35c15.032 0 24.5 3.2 28.6 5.368l-3.758 12.706c-5.906-2.863-14.316-5.011-24.338-5.011 c-28.275 0-47.065 18.074-47.065 49.75c0 29.5 17 48.5 46.4 48.497c9.484 0 19.147-1.968 25.411-5.011L861.947 119.589z"/><path d="M934.961 2.911v71.403c0 27 12 38.5 28.1 38.476c17.896 0 29.349-11.811 29.349-38.476V2.911h15.748v70.33 c0 37.043-19.506 52.255-45.634 52.255c-24.695 0-43.307-14.138-43.307-51.539V2.911H934.961z"/><path d="M1088.686 16.153H1052V2.911h89.298v13.243h-36.864v107.373h-15.748V16.153z"/><path d="M1190.512 104.557c6.979 4.3 17.2 7.9 27.9 7.874c15.927 0 25.232-8.411 25.232-20.58 c0-11.274-6.442-17.717-22.727-23.98c-19.686-6.979-31.854-17.18-31.854-34.18c0-18.791 15.569-32.749 39.013-32.749 c12.348 0 21.3 2.9 26.7 5.905l-4.295 12.706c-3.938-2.147-11.99-5.727-22.906-5.727c-16.464 0-22.728 9.842-22.728 18.1 c0 11.3 7.3 16.8 24 23.264c20.401 7.9 30.8 17.7 30.8 35.433c0 18.611-13.78 34.717-42.234 34.7 c-11.632 0-24.338-3.4-30.779-7.695L1190.512 104.557z"/></g><g><text transform="matrix(1 0 0 1 682.165 100.2939)" font-family="'MyriadPro-Regular'" font-size="107.2645">/</text></g></svg>